<?xml version="1.0" encoding="UTF-8"?>
<svg width="1399px" height="800px" viewBox="0 0 1399 800" version="1.1" xmlns="http://www.w3.org/2000/svg" xmlns:xlink="http://www.w3.org/1999/xlink">
    <!-- Generator: Sketch 63.1 (92452) - https://sketch.com -->
    <title>Artboard</title>
    <desc>Created with Sketch.</desc>
    <defs>
        <polygon id="path-1" points="0 0 1399 0 1399 800 0 800"></polygon>
        <path d="M25.5,28.8 C25.4,29 25.2,29.1 25,29.2 L4.6,39.5 C3.8,39.9 3.7,41 4.4,41.5 L11.8,47.2 C12.3,47.6 12.4,48.2 12.1,48.8 C-21.8,107.3 25.9,110.1 45.3,108.6 C46.9,108.5 48.4,109.6 48.7,111.1 L54.9,142.1 L64.2,162.5 C65.6,165.5 69.4,166.3 71.8,164.1 L97.6,141.3 L97.4,79 L83,86.8 C93.9,75.6 98.1,62.9 98.2,50.8 C83.6,50.8 49.5,40.8 67.9,1.8 C65,0.6 62.3,0 59.6,0 C45.4,0 33.9,15.5 25.5,28.8 Z" id="path-3"></path>
        <path d="M24.2,3.1 L0.7,29.5 C24.4,68 65.1,30.1 52.4,10.2 C47.3,2.2 40.9,0 35.5,0 C29.1,0.1 24.2,3.1 24.2,3.1 Z" id="path-5"></path>
        <path d="M24.2,3.1 L0.7,29.5 C24.4,68 65.1,30.1 52.4,10.2 C47.3,2.2 40.9,0 35.5,0 C29.1,0.1 24.2,3.1 24.2,3.1" id="path-7"></path>
        <polygon id="path-9" points="0 0.1 55.5 0.1 55.5 446 0 446"></polygon>
    </defs>
    <g id="Artboard" stroke="none" stroke-width="1" fill="none" fill-rule="evenodd">
        <mask id="mask-2" fill="white">
            <use xlink:href="#path-1"></use>
        </mask>
        <use id="Path" fill="#FCDE7C" fill-rule="nonzero" xlink:href="#path-1"></use>
        <g id="image" mask="url(#mask-2)">
            <g transform="translate(-74.000000, 23.000000)">
                <g id="Group" stroke-width="1" fill="none" fill-rule="evenodd" transform="translate(0.000000, 24.000000)">
                    <g transform="translate(152.000000, 25.000000)" id="Shape" stroke-width="4">
                        <path d="M1194.2,330.6 L1149.2,149 L959,404.6 L892.7,230.7 L842.2,243.8 L838,136.5 L957.8,170.1 M398,27.7 L303.2,130.7 L309.7,66 L226.7,0.7 L0.2,327.1 L186.2,385 L278.2,280.6 L424.4,548.8 L326.7,647.1 L112.7,728.1" stroke="#C4E7F2"></path>
                        <path d="M644.5,34.8095703 L613.837891,82.4970703 L732.283203,5.98046875 M761.5,80.5 L761.5,22" stroke="#CBE6EF"></path>
                    </g>
                    <g id="women_animation" transform="translate(510.000000, 53.000000)">
                        <path d="M216.8,354.8 C216.8,354.8 223.9,328.3 200.3,324.1 C176.7,319.8 62,347.4 67.5,259.3 C71.7,191.2 160.6,205.3 188.5,194.1 C221.5,180.8 244.6,122 281.3,104.3 C310.7,90.1 377.5,102.4 375.9,169.1 C374.2,238.2 441.9,253.7 483.9,251.8 C526,249.9 573.5,283.5 558.1,354.8 C542.5,427.1 470.9,389.8 465.5,470.6 C460.3,548.8 367.7,525.4 353.5,473.9 C339.2,422.4 200.7,465 216.8,354.8" id="Path" fill="#1F0F42"></path>
                        <path d="M414.49534,303.930952 C406.99534,284.230952 390.89534,265.230952 363.79534,266.130952 C363.79534,266.130952 269.19534,267.730952 248.19534,268.530952 C245.79534,268.630952 243.39534,267.530952 241.89534,265.630952 C220.89534,239.630952 88.49534,301.130952 61.09534,314.330952 C58.79534,315.430952 56.09534,313.730952 55.99534,311.230952 L52.39534,169.330952 C52.29534,167.430952 50.79534,165.830952 48.79534,165.830952 L17.29534,165.730952 C15.49534,165.730952 13.99534,167.030952 13.79534,168.730952 C5.39534,223.130952 -11.00466,363.630952 12.89534,369.930952 C36.79534,376.230952 166.39534,343.930952 203.99534,334.330952 C209.09534,333.030952 213.79534,337.630952 212.59534,342.730952 C203.89534,382.930952 165.09534,419.030952 213.09534,445.530952 C216.89534,447.630952 219.39534,451.330952 219.79534,455.630952 L228.29534,548.930952 C228.39534,549.630952 228.39534,550.430952 228.29534,551.130952 L207.79534,717.830952 L429.49534,717.830952 C429.49534,717.830952 434.99534,578.430952 368.59534,522.930952 C366.49534,521.230952 365.39534,518.530952 365.69534,515.830952 L366.59534,507.830952 C366.69534,506.730952 367.79534,505.930952 368.89534,506.130952 C410.59534,514.930952 447.49534,525.130952 452.69534,505.230952 C460.19534,477.330952 433.79534,354.830952 414.49534,303.930952" id="Path" fill="#F7FDFF" fill-rule="nonzero"></path>
                        <path d="M243.3,154 C249.5,141 250.7,128.6 246.1,126.4 C241.5,124.2 232.6,132.9 226.4,145.9 C220.2,158.9 219,171.3 223.6,173.5 C228.3,175.7 237.1,167 243.3,154" id="Path" fill="#E0F8FF"></path>
                        <path d="M67.2,97.7 C56.8,123.9 48.3,138.8 48.3,138.8 L49.5,165.9 L17.4,165.9 C19.2,154.6 20.3,147.7 20.3,147.7 C20.3,147.7 5.4,143.4 3.3,116.5 C1.1,89.6 42.3,72.9 42.3,72.9 C42.3,72.9 42.8,35.5 44,9.8 C44.4,0.9 46.9,1.42108547e-14 49.4,1.42108547e-14 C52.3,1.42108547e-14 54.2,6.5 54.4,15.8 C55,43.4 57.6,87.8 57.6,87.8 C57.6,87.8 84.8,56 91.1,61.1 C97.6,66.3 67.2,97.7 67.2,97.7" id="Path" fill="#1F0F42"></path>
                        <path d="M375.7,488.3 C374.2,498.3 365.6,505.3 356.6,503.9 C347.6,502.5 341.5,493.3 343,483.2 C344.5,473.2 353.1,466.2 362.1,467.6 C371.2,469 377.2,478.3 375.7,488.3" id="Path" fill="#2F365F"></path>
                        <g id="Group" transform="translate(220.184348, 125.740184)">
                            <g id="Clipped">
                                <mask id="mask-4" fill="white">
                                    <use xlink:href="#path-3"></use>
                                </mask>
                                <g id="c_2_"></g>
                                <path d="M83,86.8 C93.9,75.6 98.1,62.9 98.2,50.8 C83.6,50.8 49.5,40.8 67.9,1.8 C49.8,-6 35.3,13.2 25.3,29.1 L2.9,40.4 L12.7,47.9 C-21.3,105.2 21.9,112.1 45.5,108.8 C47,108.6 48.5,109.6 48.8,111.1 L55,142.2 L67,168.6 L97.8,141.5 L97.4,79 L83,86.8 Z" id="Path" fill="#E3977D" fill-rule="nonzero" mask="url(#mask-4)"></path>
                            </g>
                        </g>
                        <g id="Group" transform="translate(285.412053, 175.372437)">
                            <g id="Clipped">
                                <mask id="mask-6" fill="white">
                                    <use xlink:href="#path-5"></use>
                                </mask>
                                <g id="e_2_"></g>
                                <path d="M24.2,3.1 C24.2,3.1 41.2,-7.2 52.4,10.3 C65.1,30.1 24.4,68 0.7,29.5 L24.2,3.1 Z" id="Path" fill="#E3977D" fill-rule="nonzero" mask="url(#mask-6)"></path>
                            </g>
                        </g>
                        <g id="Group" transform="translate(285.412053, 175.372437)">
                            <g id="Clipped">
                                <mask id="mask-8" fill="white">
                                    <use xlink:href="#path-7"></use>
                                </mask>
                                <g id="g_2_"></g>
                                <path d="M10.1,98.8 L10.3,98.8 C10.3,98.7 10.4,98.6 10.4,98.6 C10.5,98.5 10.7,98.4 10.7,98.4 C10.7,98.5 10.6,98.5 10.6,98.6 L10.7,98.6 L10.8,98.3 C10.8,98.2 11,98 11,98 C10.9,97.8 10.8,97.7 10.7,97.6 C10.5,97.5 10.3,97.5 10.2,97.6 C10.1,97.6 10,97.7 10,97.7 L10,97.3 C10.1,97.3 10.1,97.2 10.2,97.2 L10.3,97.1 C10.4,97.1 10.6,97 10.7,96.8 C10.8,96.6 10.8,96.3 10.8,96.2 C10.8,96.3 10.5,96.2 10.5,96.2 C10.5,96.1 10.7,96 10.7,96 L10.5,95.7 L9.9,95.7 C9.9,95.7 9.7,95.6 9.5,95.6 L9,95.8 C8.8,96 8.7,96.3 8.8,96.6 C8.8,96.7 8.9,96.8 8.9,96.9 C8.9,97 8.8,97 8.8,97 C8.6,97.2 8.5,97.5 8.6,97.8 C8.7,98.1 9,98.3 9.3,98.3 C9.4,98.3 9.5,98.3 9.7,98.2 L9.7,98.6 L10,98.7 C9.9,98.7 10,98.8 10.1,98.8" id="Path" fill="#DE8768" fill-rule="nonzero" mask="url(#mask-8)"></path>
                            </g>
                        </g>
                        <path d="M268.2,176.1 C274.4,163.1 274.3,150.1 268,147.1 C261.7,144.1 251.6,152.2 245.4,165.3 C239.2,178.3 239.3,191.3 245.6,194.3 C251.9,197.3 262,189.1 268.2,176.1" id="Path" fill="#E0F8FF"></path>
                        <path d="M272.7,159.9 L241.6,176.7 C242.3,173.1 243.6,169.2 245.5,165.3 C245.8,164.7 246,164.2 246.3,163.6 L271.1,150.2 C272.4,152.6 273,155.9 272.7,159.9 M247.6,142.2 L222.6,155.7 C223.5,152.6 224.8,149.3 226.4,145.9 C227,144.6 227.7,143.3 228.4,142 L248.8,131 C249.1,133.9 248.8,137.7 247.6,142.2" id="Shape" fill="#FFFFFF"></path>
                        <path d="M278.7,496.5 C278.7,496.5 318.4,523.8 352.8,504.5 C387.2,485.2 360.5,463.4 351.7,462.5 C343,461.6 313.4,465.1 312.2,470.3 C311,475.5 347.2,472.9 347.2,472.9 L330.3,495.6 L278.7,496.5 Z" id="Path" fill="#2F365F"></path>
                        <path d="M287.9,424.7 C287.6,424.7 287.3,424.6 287,424.4 C286.4,423.9 286.3,423 286.7,422.4 L340.6,351.3 C344.7,345.8 344.2,338.1 339.3,333.3 L329.4,323.6 C328.6,322.8 328.2,321.6 328.4,320.5 C328.6,319.4 329.3,318.4 330.4,317.9 L351,308.3 C354.6,306.6 357.2,303.5 358.3,299.8 C359.4,296 358.8,292 356.7,288.6 L346.3,272.2 C345.9,271.5 346.1,270.7 346.7,270.2 C347.4,269.8 348.2,270 348.7,270.6 L359.1,287 C361.6,291 362.3,295.9 361,300.5 C359.7,305.1 356.4,308.8 352.1,310.8 L331.5,320.4 C331.2,320.5 331.1,320.8 331.1,320.9 C331.1,321 331.1,321.3 331.3,321.5 L341.2,331.2 C347.1,337 347.8,346.4 342.8,353 L289,424.2 C288.7,424.5 288.3,424.7 287.9,424.7 M270.2,407.4 C269.7,407.4 269.2,407.1 269,406.7 L239.7,352.8 C235.7,345.5 237.8,336.4 244.5,331.5 L255.7,323.4 C256,323.2 256,323 256,322.8 C256,322.7 256,322.4 255.7,322.2 L236.8,309.6 C232.8,307 230.2,302.8 229.6,298.1 C229,293.4 230.4,288.6 233.5,285.1 L246.2,270.4 C246.7,269.8 247.6,269.7 248.2,270.3 C248.8,270.8 248.9,271.7 248.3,272.3 L235.5,287 C232.9,290 231.8,293.9 232.3,297.8 C232.8,301.7 235,305.2 238.3,307.3 L257.2,319.9 C258.2,320.5 258.8,321.6 258.8,322.8 C258.8,324 258.3,325.1 257.3,325.7 L246.1,333.8 C240.5,337.8 238.8,345.4 242.1,351.4 L271.4,405.3 C271.8,406 271.5,406.8 270.8,407.2 C270.7,407.4 270.4,407.4 270.2,407.4" id="Shape" fill="#CBEAF4"></path>
                        <g id="Group" transform="translate(265.375188, 271.800815)">
                            <g id="Clipped">
                                <mask id="mask-10" fill="white">
                                    <use xlink:href="#path-9"></use>
                                </mask>
                                <g id="i_2_"></g>
                                <path d="M1.5,447.5 C0.7,447.5 0.1,446.8 0.1,446 L9.9,157.5 C10,155.6 10.3,153.7 10.8,151.9 L52.8,1.2 C53,0.4 53.8,1.71251902e-14 54.5,0.2 C55.3,0.4 55.7,1.2 55.5,1.9 L13.5,152.6 C13,154.2 12.8,155.9 12.7,157.5 L2.9,446.1 C2.8,446.9 2.2,447.5 1.5,447.5" id="Path" fill="#CBEAF4" fill-rule="nonzero" mask="url(#mask-10)"></path>
                            </g>
                        </g>
                        <path d="M355.6,455.5 L241.9,455.5 C240.3,455.5 238.7,456.1 237.6,457.3 L183.2,512.1 C181.7,513.6 182.8,516.1 184.8,516.1 L312.5,516.1 C314.4,516.1 316.2,515.2 317.4,513.6 L357.5,459.2 C358.6,457.7 357.5,455.5 355.6,455.5" id="Path" fill="#1F0F42"></path>
                        <path d="M340.3,459.8 L246.2,459.8 C245.6,459.8 245,460.1 244.5,460.5 L198.6,506.6 C198.3,506.9 198.5,507.5 199,507.5 L304,507.5 C304.7,507.5 305.4,507.2 305.9,506.6 L340.8,460.6 C341,460.3 340.8,459.8 340.3,459.8" id="Path" fill="#DCF3FA" fill-rule="nonzero"></path>
                        <path d="M347.3,472.8 C347.3,472.8 311.1,475.4 312.3,470.2 C313.5,465 341.6,461.3 351.8,462.4 C354.5,462.7 359.2,464.8 361.6,467.5 L347.3,472.8 Z" id="Path" fill="#2F365F"></path>
                        <path d="M27.5,124.6 C13.6,124.6 5.7,113.1 5.6,113 C5.2,112.4 5.3,111.5 6,111 C6.6,110.6 7.5,110.7 8,111.4 C8.4,111.9 16.9,124.1 32,121.3 C51.8,117.6 54.8,98.8 55.2,91 C55.2,90.2 55.9,89.6 56.7,89.7 C57.5,89.7 58.1,90.4 58,91.2 C57.7,97.9 54.9,120 32.5,124.2 C30.7,124.5 29.1,124.6 27.5,124.6" id="Path" fill="#071038" fill-rule="nonzero"></path>
                        <path d="M283.4,404.1 C282.7,404.1 282.1,403.6 282,402.8 L268,273.5 C267.9,272.7 268.5,272 269.3,271.9 C270.1,271.8 270.8,272.4 270.9,273.2 L284.9,402.5 C285,403.3 284.4,404 283.6,404.1 L283.4,404.1 M376.5,416.2 C375.9,416.2 375.4,415.8 375.2,415.3 C368,395.2 360.4,374.2 360.4,374.2 C360.1,373.5 360.5,372.6 361.3,372.4 C362,372.1 362.8,372.5 363.1,373.3 C363.1,373.3 370.7,394.3 377.9,414.4 C378.2,415.1 377.8,416 377,416.2 C376.8,416.1 376.7,416.2 376.5,416.2" id="Shape" fill="#CBEAF4"></path>
                        <path d="M314.8,221.6 C298.8,221.6 292.6,212.4 292.4,212 C292,211.3 292.2,210.5 292.8,210 C293.5,209.6 294.3,209.8 294.8,210.4 C295,210.8 300.7,219.2 316,218.7 C316.8,218.7 317.4,219.3 317.5,220.1 C317.5,220.9 316.9,221.5 316.1,221.6 L314.8,221.6 M231.8,196 C231.6,196 231.4,196 231.2,195.9 L224.8,192.9 C224.1,192.6 223.8,191.7 224.1,191 C224.4,190.3 225.3,190 226,190.3 L232.4,193.3 C233.1,193.6 233.4,194.5 233.1,195.2 C232.8,195.7 232.3,196 231.8,196" id="Shape" fill="#D47655" fill-rule="nonzero"></path>
                    </g>
                    <circle id="Oval" fill="#F7FDFF" fill-rule="nonzero" cx="551" cy="46" r="46"></circle>
                    <path d="M479.5,553 C545.5,553 599,606.5 599,672.5 C599,738.5 545.5,792 479.5,792 C413.5,792 360,738.5 360,672.5 C360,606.5 413.5,553 479.5,553 Z M153,200 C237.2,200 305.5,268.3 305.5,352.5 C305.5,436.7 237.2,505 153,505 C68.8,505 0.5,436.7 0.5,352.5 C0.5,268.3 68.8,200 153,200 Z M1302,76 C1354.7,76 1397.4,118.7 1397.4,171.4 C1397.4,224.1 1354.7,266.8 1302,266.8 C1249.3,266.8 1206.6,224.1 1206.6,171.4 C1206.6,118.7 1249.3,76 1302,76 Z M995,124.4 C1013.8,124.4 1029,139.6 1029,158.4 C1029,177.2 1013.8,192.4 995,192.4 C976.2,192.4 961,177.2 961,158.4 C961,139.6 976.2,124.4 995,124.4 Z" id="Shape" fill="#E5FAFE" fill-rule="nonzero"></path>
                    <path d="M462.5,77 C470.5,77 477,83.5 477,91.5 C477,99.5 470.5,106 462.5,106 C454.5,106 448,99.5 448,91.5 C448,83.5 454.5,77 462.5,77 Z M1339.2,294.4 C1376.6,294.4 1407,324.8 1407,362.2 C1407,399.6 1376.6,430 1339.2,430 C1301.8,430 1271.4,399.6 1271.4,362.2 C1271.4,324.8 1301.8,294.4 1339.2,294.4 Z M1041,246.4 C1048.3,246.4 1054.2,252.3 1054.2,259.6 C1054.2,266.9 1048.3,272.8 1041,272.8 C1033.7,272.8 1027.8,266.9 1027.8,259.6 C1027.8,252.3 1033.7,246.4 1041,246.4 Z M796.5,45 C804,45 810,51 810,58.5 C810,66 804,72 796.5,72 C789,72 783,66 783,58.5 C783,51 789,45 796.5,45 Z" id="Shape" fill="#B4D9E9" fill-rule="nonzero"></path>
                </g>
                <path d="M913.5,120 C921.5,120 928,126.5 928,134.5 C928,142.5 921.5,149 913.5,149 C905.5,149 899,142.5 899,134.5 C899,126.5 905.5,120 913.5,120 Z M911.5,71 C893.3,71 878.5,56.2 878.5,38 C878.5,19.8 893.3,5 911.5,5 C929.7,5 944.5,19.8 944.5,38 C944.5,56.2 929.7,71 911.5,71 Z M911.5,8 C895,8 881.5,21.5 881.5,38 C881.5,54.5 895,68 911.5,68 C928,68 941.5,54.5 941.5,38 C941.5,21.5 928,8 911.5,8 Z" id="Shape" fill="#C4E7F2" fill-rule="nonzero"></path>
                <path d="M455.5,144.8 C472.9,144.8 487,158.9 487,176.3 C487,193.7 472.9,207.8 455.5,207.8 C438.1,207.8 424,193.7 424,176.3 C424,158.9 438.1,144.8 455.5,144.8 Z M379.5,0.3 C404.9,0.3 425.5,20.9 425.5,46.3 C425.5,71.7 404.9,92.3 379.5,92.3 C354.1,92.3 333.5,71.7 333.5,46.3 C333.5,20.9 354.1,0.3 379.5,0.3 Z M339,340.3 C387,340.3 426,379.3 426,427.3 C426,475.3 387,514.3 339,514.3 C291,514.3 252,475.3 252,427.3 C252,379.3 291,340.3 339,340.3 L339,340.3 Z M431,301.3 C444.8,301.3 456,312.5 456,326.3 C456,340.1 444.8,351.3 431,351.3 C417.2,351.3 406,340.1 406,326.3 C406,312.5 417.2,301.3 431,301.3 Z M578,514.3 C618.9,514.3 652,547.4 652,588.3 C652,629.2 618.9,662.3 578,662.3 C537.1,662.3 504,629.2 504,588.3 C504,547.4 537.1,514.3 578,514.3 Z M265.5,733.3 C287.9,733.3 306,751.4 306,773.8 C306,796.2 287.9,814.3 265.5,814.3 C243.1,814.3 225,796.2 225,773.8 C225,751.4 243.1,733.3 265.5,733.3 Z M763.5,106.3 C774.3,106.3 783,115 783,125.8 C783,136.6 774.3,145.3 763.5,145.3 C752.7,145.3 744,136.6 744,125.8 C744,115 752.7,106.3 763.5,106.3 Z" id="Shape" fill="#C4E7F2" fill-rule="nonzero"></path>
                <g id="after" stroke-width="1" fill="none" fill-rule="evenodd" transform="translate(975.000000, 197.000000)">
                    <circle id="Oval" fill="#C4E7F2" fill-rule="nonzero" cx="136.8" cy="238.4" r="51.6"></circle>
                    <circle id="Oval" fill="#C4E7F2" fill-rule="nonzero" cx="165.6" cy="45.8" r="45.6"></circle>
                    <circle id="Oval" fill="#C4E7F2" fill-rule="nonzero" cx="20.4" cy="93.8" r="20.4"></circle>
                    <path d="M337,337.6 C453,337.6 547,431.6 547,547.6 C547,663.6 453,757.6 337,757.6 C221,757.6 127,663.6 127,547.6 C127,431.6 221,337.6 337,337.6 Z" id="Path" fill="#C4E7F2" fill-rule="nonzero"></path>
                </g>
            </g>
        </g>
    </g>
</svg>